<svg width="1600" height="1200" viewBox="0 0 1600 1200" fill="none" xmlns="http://www.w3.org/2000/svg">
<g clip-path="url(#clip0_202_10)">
<path fill-rule="evenodd" clip-rule="evenodd" d="M156.605 1431.32C28.2368 1281.88 -157.328 1113.96 -113.804 922.06C-69.4784 726.627 184.819 676.93 352.482 567.687C470.371 490.874 594.259 445.071 718.79 379.571C906.259 280.967 1054.63 65.8338 1265.55 87.4361C1483.18 109.726 1657.56 297.068 1767.01 486.932C1875.99 675.986 1902.39 904.742 1859.92 1118.52C1820.03 1319.29 1692.34 1487.6 1540.93 1624.94C1402.18 1750.8 1231.5 1842.4 1044.75 1857.96C872.059 1872.36 716.593 1781.82 560.186 1706.69C409.756 1634.43 265.43 1558.01 156.605 1431.32Z" fill="#FFDE69"/>
<path fill-rule="evenodd" clip-rule="evenodd" d="M463.544 1670.67C289.209 1597.44 57.8385 1532.89 12.8683 1349.46C-32.9294 1162.64 164.081 1010.86 261.16 845.128C329.419 728.596 416.135 636.113 494.95 526.444C613.599 361.346 648.683 112.974 839.038 41.0247C1035.46 -33.2162 1265.56 52.8081 1441 168.861C1615.68 284.419 1736.5 469.498 1791.76 671.268C1843.66 860.761 1806.24 1060.05 1735.18 1242.93C1670.05 1410.53 1562.81 1562.41 1409.14 1655.9C1267.06 1742.36 1094.73 1731.33 928.204 1733.93C768.042 1736.44 611.337 1732.75 463.544 1670.67Z" fill="#EF5858"/>
</g>
<defs>
<clipPath id="clip0_202_10">
<rect width="1600" height="1200" fill="white"/>
</clipPath>
</defs>
</svg>
